<svg width="128" height="128" viewBox="0 0 128 128" xmlns="http://www.w3.org/2000/svg">
  <!-- Background circle -->
  <circle cx="64" cy="64" r="60" fill="#007bff" stroke="#0056b3" stroke-width="2"/>
  
  <!-- YouTube play button -->
  <rect x="40" y="35" width="48" height="58" rx="8" fill="#ffffff" opacity="0.9"/>
  <polygon points="52,45 52,83 88,64" fill="#007bff"/>
  
  <!-- Filter icon -->
  <path d="M 25 45 L 35 45 L 40 55 L 50 55 L 55 65 L 75 65 L 80 55 L 90 55 L 95 45 L 105 45" 
        stroke="#ffffff" stroke-width="3" fill="none" stroke-linecap="round"/>
  
  <!-- Intention arrow -->
  <path d="M 85 25 L 95 25 L 95 35 M 90 30 L 95 35 L 90 40" 
        stroke="#ffffff" stroke-width="2" fill="none" stroke-linecap="round" stroke-linejoin="round"/>
  
  <!-- Shield for security -->
  <path d="M 64 95 L 70 92 L 70 85 C 70 82 67 80 64 80 C 61 80 58 82 58 85 L 58 92 Z" 
        fill="#ffffff" opacity="0.8"/>
  <path d="M 64 95 L 70 92 L 70 85 C 70 82 67 80 64 80 C 61 80 58 82 58 85 L 58 92 Z" 
        stroke="#007bff" stroke-width="1" fill="none"/>
</svg> 